grf
version=1
nRows=18
nColumns=46
inDegrees=yes
endheader
time	ground_force_1_vx	ground_force_1_vy	ground_force_1_vz	ground_force_1_px	ground_force_1_py	ground_force_1_pz	ground_moment_1_mx	ground_moment_1_my	ground_moment_1_mz	ground_force_2_vx	ground_force_2_vy	ground_force_2_vz	ground_force_2_px	ground_force_2_py	ground_force_2_pz	ground_moment_2_mx	ground_moment_2_my	ground_moment_2_mz	ground_force_3_vx	ground_force_3_vy	ground_force_3_vz	ground_force_3_px	ground_force_3_py	ground_force_3_pz	ground_moment_3_mx	ground_moment_3_my	ground_moment_3_mz	ground_force_4_vx	ground_force_4_vy	ground_force_4_vz	ground_force_4_px	ground_force_4_py	ground_force_4_pz	ground_moment_4_mx	ground_moment_4_my	ground_moment_4_mz	ground_force_5_vx	ground_force_5_vy	ground_force_5_vz	ground_force_5_px	ground_force_5_py	ground_force_5_pz	ground_moment_5_mx	ground_moment_5_my	ground_moment_5_mz
1.957500	0.000000	0.000000	0.000000	0.000000	0.000000	0.000000	0.000000	0.000000	0.000000	0.000000	0.000000	0.000000	0.000000	0.000000	0.000000	0.000000	0.000000	0.000000	0.000000	0.000000	0.000000	0.000000	0.000000	0.000000	0.000000	0.000000	0.000000	6.518571	456.896841	-125.591588	0.182407	0.000000	-0.889852	0.000000	5.407077	0.000000	-0.680190	386.183132	102.197033	0.225274	0.000000	-1.582462	-0.000000	-2.034392	-0.000000
1.958000	0.000000	0.000000	0.000000	0.000000	0.000000	0.000000	0.000000	0.000000	0.000000	0.000000	0.000000	0.000000	0.000000	0.000000	0.000000	0.000000	0.000000	0.000000	0.000000	0.000000	0.000000	0.000000	0.000000	0.000000	0.000000	0.000000	0.000000	6.509716	456.278779	-125.537184	0.182418	0.000000	-0.889828	0.000000	5.397172	0.000000	-0.723022	385.277887	102.005733	0.225316	0.000000	-1.582471	-0.000000	-2.027045	-0.000000
1.958500	0.000000	0.000000	0.000000	0.000000	0.000000	0.000000	0.000000	0.000000	0.000000	0.000000	0.000000	0.000000	0.000000	0.000000	0.000000	0.000000	0.000000	0.000000	0.000000	0.000000	0.000000	0.000000	0.000000	0.000000	0.000000	0.000000	0.000000	6.500250	455.661555	-125.482223	0.182430	0.000000	-0.889804	0.000000	5.387252	0.000000	-0.765492	384.378496	101.814368	0.225357	0.000000	-1.582480	-0.000000	-2.019819	-0.000000
1.959000	0.000000	0.000000	0.000000	0.000000	0.000000	0.000000	0.000000	0.000000	0.000000	0.000000	0.000000	0.000000	0.000000	0.000000	0.000000	0.000000	0.000000	0.000000	0.000000	0.000000	0.000000	0.000000	0.000000	0.000000	0.000000	0.000000	0.000000	6.490182	455.045228	-125.426657	0.182442	0.000000	-0.889781	0.000000	5.377329	0.000000	-0.807577	383.485166	101.622948	0.225398	0.000000	-1.582488	-0.000000	-2.012711	-0.000000
1.959500	0.000000	0.000000	0.000000	0.000000	0.000000	0.000000	0.000000	0.000000	0.000000	0.000000	0.000000	0.000000	0.000000	0.000000	0.000000	0.000000	0.000000	0.000000	0.000000	0.000000	0.000000	0.000000	0.000000	0.000000	0.000000	0.000000	0.000000	6.479527	454.429845	-125.370434	0.182455	0.000000	-0.889756	0.000000	5.367413	0.000000	-0.849257	382.598073	101.431482	0.225439	0.000000	-1.582496	-0.000000	-2.005714	-0.000000
1.960000	0.000000	0.000000	0.000000	0.000000	0.000000	0.000000	0.000000	0.000000	0.000000	0.000000	0.000000	0.000000	0.000000	0.000000	0.000000	0.000000	0.000000	0.000000	0.000000	0.000000	0.000000	0.000000	0.000000	0.000000	0.000000	0.000000	0.000000	6.468303	453.815449	-125.313498	0.182469	0.000000	-0.889732	0.000000	5.357514	0.000000	-0.890514	381.717349	101.239982	0.225480	0.000000	-1.582503	-0.000000	-1.998824	-0.000000
1.960500	0.000000	0.000000	0.000000	0.000000	0.000000	0.000000	0.000000	0.000000	0.000000	0.000000	0.000000	0.000000	0.000000	0.000000	0.000000	0.000000	0.000000	0.000000	0.000000	0.000000	0.000000	0.000000	0.000000	0.000000	0.000000	0.000000	0.000000	6.456533	453.202083	-125.255791	0.182484	0.000000	-0.889708	0.000000	5.347639	0.000000	-0.931336	380.843098	101.048469	0.225521	0.000000	-1.582509	-0.000000	-1.992037	-0.000000
1.961000	0.000000	0.000000	0.000000	0.000000	0.000000	0.000000	0.000000	0.000000	0.000000	0.000000	0.000000	0.000000	0.000000	0.000000	0.000000	0.000000	0.000000	0.000000	0.000000	0.000000	0.000000	0.000000	0.000000	0.000000	0.000000	0.000000	0.000000	6.444242	452.589799	-125.197250	0.182499	0.000000	-0.889684	0.000000	5.337796	0.000000	-0.971708	379.975395	100.856965	0.225561	0.000000	-1.582515	-0.000000	-1.985351	-0.000000
1.961500	0.000000	0.000000	0.000000	0.000000	0.000000	0.000000	0.000000	0.000000	0.000000	0.000000	0.000000	0.000000	0.000000	0.000000	0.000000	0.000000	0.000000	0.000000	0.000000	0.000000	0.000000	0.000000	0.000000	0.000000	0.000000	0.000000	0.000000	6.431453	451.978659	-125.137808	0.182515	0.000000	-0.889659	0.000000	5.327990	0.000000	-1.011619	379.114299	100.665505	0.225601	0.000000	-1.582521	-0.000000	-1.978760	-0.000000
1.962000	0.000000	0.000000	0.000000	0.000000	0.000000	0.000000	0.000000	0.000000	0.000000	0.000000	0.000000	0.000000	0.000000	0.000000	0.000000	0.000000	0.000000	0.000000	0.000000	0.000000	0.000000	0.000000	0.000000	0.000000	0.000000	0.000000	0.000000	6.418187	451.368736	-125.077394	0.182531	0.000000	-0.889635	0.000000	5.318222	0.000000	-1.051055	378.259853	100.474121	0.225641	0.000000	-1.582525	-0.000000	-1.972264	-0.000000
1.962500	0.000000	0.000000	0.000000	0.000000	0.000000	0.000000	0.000000	0.000000	0.000000	0.000000	0.000000	0.000000	0.000000	0.000000	0.000000	0.000000	0.000000	0.000000	0.000000	0.000000	0.000000	0.000000	0.000000	0.000000	0.000000	0.000000	0.000000	6.404467	450.760103	-125.015935	0.182548	0.000000	-0.889611	0.000000	5.308490	0.000000	-1.090008	377.412086	100.282852	0.225681	0.000000	-1.582529	-0.000000	-1.965858	-0.000000
1.963000	0.000000	0.000000	0.000000	0.000000	0.000000	0.000000	0.000000	0.000000	0.000000	0.000000	0.000000	0.000000	0.000000	0.000000	0.000000	0.000000	0.000000	0.000000	0.000000	0.000000	0.000000	0.000000	0.000000	0.000000	0.000000	0.000000	0.000000	6.390312	450.152820	-124.953357	0.182565	0.000000	-0.889586	0.000000	5.298795	0.000000	-1.128468	376.571017	100.091734	0.225720	0.000000	-1.582532	-0.000000	-1.959540	-0.000000
1.963500	0.000000	0.000000	0.000000	0.000000	0.000000	0.000000	0.000000	0.000000	0.000000	0.000000	0.000000	0.000000	0.000000	0.000000	0.000000	0.000000	0.000000	0.000000	0.000000	0.000000	0.000000	0.000000	0.000000	0.000000	0.000000	0.000000	0.000000	6.375743	449.546929	-124.889583	0.182582	0.000000	-0.889562	-0.000000	5.289131	0.000000	-1.166431	375.736653	99.900806	0.225759	0.000000	-1.582535	-0.000000	-1.953305	-0.000000
1.964000	0.000000	0.000000	0.000000	0.000000	0.000000	0.000000	0.000000	0.000000	0.000000	0.000000	0.000000	0.000000	0.000000	0.000000	0.000000	0.000000	0.000000	0.000000	0.000000	0.000000	0.000000	0.000000	0.000000	0.000000	0.000000	0.000000	0.000000	6.360793	448.942461	-124.824531	0.182600	0.000000	-0.889538	-0.000000	5.279498	0.000000	-1.203891	374.908992	99.710103	0.225798	0.000000	-1.582537	-0.000000	-1.947150	-0.000000
1.964500	0.000000	0.000000	0.000000	0.000000	0.000000	0.000000	0.000000	0.000000	0.000000	0.000000	0.000000	0.000000	0.000000	0.000000	0.000000	0.000000	0.000000	0.000000	0.000000	0.000000	0.000000	0.000000	0.000000	0.000000	0.000000	0.000000	0.000000	6.345502	448.339433	-124.758113	0.182618	0.000000	-0.889513	-0.000000	5.269892	0.000000	-1.240849	374.088032	99.519659	0.225836	0.000000	-1.582538	-0.000000	-1.941069	-0.000000
1.965000	0.000000	0.000000	0.000000	0.000000	0.000000	0.000000	0.000000	0.000000	0.000000	0.000000	0.000000	0.000000	0.000000	0.000000	0.000000	0.000000	0.000000	0.000000	0.000000	0.000000	0.000000	0.000000	0.000000	0.000000	0.000000	0.000000	0.000000	6.329920	447.737855	-124.690243	0.182637	0.000000	-0.889489	-0.000000	5.260308	0.000000	-1.277310	373.273770	99.329511	0.225874	0.000000	-1.582539	-0.000000	-1.935060	-0.000000
1.965500	0.000000	0.000000	0.000000	0.000000	0.000000	0.000000	0.000000	0.000000	0.000000	0.000000	0.000000	0.000000	0.000000	0.000000	0.000000	0.000000	0.000000	0.000000	0.000000	0.000000	0.000000	0.000000	0.000000	0.000000	0.000000	0.000000	0.000000	6.314102	447.137726	-124.620830	0.182656	0.000000	-0.889465	-0.000000	5.250741	0.000000	-1.313279	372.466208	99.139694	0.225912	0.000000	-1.582540	-0.000000	-1.929118	-0.000000
1.966000	0.000000	0.000000	0.000000	0.000000	0.000000	0.000000	0.000000	0.000000	0.000000	0.000000	0.000000	0.000000	0.000000	0.000000	0.000000	0.000000	0.000000	0.000000	0.000000	0.000000	0.000000	0.000000	0.000000	0.000000	0.000000	0.000000	0.000000	6.298103	446.539029	-124.549783	0.182675	0.000000	-0.889441	-0.000000	5.241187	0.000000	-1.348763	371.665346	98.950252	0.225950	0.000000	-1.582539	-0.000000	-1.923238	-0.000000
